<svg width="117" height="117" viewBox="0 0 117 117" fill="none" xmlns="http://www.w3.org/2000/svg">
<path fill-rule="evenodd" clip-rule="evenodd" d="M99.1038 58.5071L82.6507 58.5193C82.9188 59.2822 83.0675 60.1037 83.0699 60.9568V62.5168C83.0699 64.9226 81.9121 67.0579 80.1205 68.3912C80.8274 69.5124 81.2345 70.8433 81.2369 72.2668V73.8268C81.2379 74.7873 81.0496 75.7386 80.6829 76.6263C80.3161 77.514 79.7781 78.3208 79.0994 79.0005C78.4208 79.6803 77.615 80.2197 76.7279 80.5879C75.8408 80.9561 74.8898 81.146 73.9293 81.1466H72.6106C72.8787 81.9096 73.0274 82.731 73.0274 83.5841L73.0299 85.1441C73.0308 86.1046 72.8426 87.0559 72.4758 87.9436C72.109 88.8313 71.571 89.6381 70.8924 90.3179C70.2138 90.9976 69.4079 91.537 68.5208 91.9052C67.6337 92.2734 66.6827 92.4633 65.7222 92.4639L38.7562 92.4859C22.7223 92.4981 9.71337 79.5111 9.70118 63.4772C9.69568 57.5134 11.527 51.6927 14.9462 46.8064C18.3654 41.9201 23.2064 38.2054 28.8112 36.1674L58.0149 25.5521C59.4301 25.0376 60.9633 24.9405 62.4321 25.2723C63.9009 25.6042 65.2434 26.3511 66.2999 27.4241C70.3072 31.4948 68.7667 38.3441 63.4042 40.3136L57.8345 42.3538L99.0916 42.3221C101.238 42.3205 103.297 43.1716 104.816 44.6881C106.334 46.2045 107.189 48.2623 107.19 50.4085C107.192 52.5548 106.341 54.6138 104.824 56.1326C103.308 57.6514 101.25 58.5055 99.1038 58.5071ZM99.094 47.1971C99.9474 47.1965 100.766 47.5348 101.37 48.1378C101.974 48.7407 102.313 49.5589 102.314 50.4122C102.315 51.2655 101.976 52.0842 101.373 52.688C100.77 53.2919 99.9523 53.6315 99.0989 53.6321H97.4365C97.4401 53.5721 97.4417 53.5119 97.4414 53.4518V53.4371C97.4414 51.4189 95.2574 49.7809 92.5664 49.7857C89.873 49.7857 87.6914 51.4262 87.6914 53.4444C87.6914 53.5103 87.6939 53.5761 87.6987 53.6394L62.1416 53.6614L62.1464 58.5364L75.755 58.5242C76.4015 58.5242 77.0214 58.781 77.4786 59.2381C77.9357 59.6952 78.1925 60.3152 78.1925 60.9617L78.1949 62.5217C78.1949 63.1682 77.9381 63.7881 77.481 64.2453C77.0239 64.7024 76.4039 64.9592 75.7574 64.9592L62.1513 64.9714L62.1562 69.8464L73.922 69.8366C74.5685 69.8366 75.1884 70.0934 75.6456 70.5506C76.1027 71.0077 76.3595 71.6277 76.3595 72.2741L76.3619 73.8317C76.3619 74.4782 76.1051 75.0981 75.648 75.5553C75.1909 76.0124 74.5709 76.2692 73.9244 76.2692L56.6036 76.2863L56.6084 81.1613L65.7149 81.1539C66.361 81.1539 66.9806 81.4104 67.4376 81.867C67.8947 82.3236 68.1518 82.943 68.1524 83.589L68.1549 85.149C68.1549 85.7955 67.8981 86.4155 67.4409 86.8726C66.9838 87.3297 66.3638 87.5865 65.7174 87.5865L38.7513 87.6109C25.4109 87.6206 14.5859 76.8128 14.5762 63.4723C14.572 58.5101 16.0961 53.667 18.9413 49.6015C21.7866 45.536 25.8148 42.4454 30.4784 40.7499L59.6797 30.1346C60.4154 29.8924 61.2164 29.9458 61.9134 30.2836C62.6104 30.6213 63.1488 31.2168 63.4147 31.9442C63.6806 32.6717 63.6532 33.474 63.3383 34.1816C63.0234 34.8892 62.4456 35.4466 61.7272 35.736L56.1551 37.7786C51.0387 39.6555 52.3891 47.2361 57.8369 47.2288L99.094 47.1971Z" fill="#D68711"/>
<path d="M92.5908 81.4707C96.6858 81.4707 99.9009 78.3995 99.8984 74.4995C99.8936 70.8798 92.5737 61.9707 92.5737 61.9707C92.5737 61.9707 85.2686 70.6141 85.2734 74.5141C85.2734 78.4141 88.4958 81.4756 92.5908 81.4707Z" fill="#D68711"/>
</svg>
